<svg xmlns="http://www.w3.org/2000/svg" viewBox="0 0 64 64" width="64" height="64" role="img" aria-label="ComplyKit">
  <!-- Shield (compliance/protection) with a document + checkmark. Copper #bf6b3c + ink #14181f, transparent bg. -->
  <!-- Shield body -->
  <path d="M32 4 54 12 V30 C54 44 45 54 32 60 C19 54 10 44 10 30 V12 Z" fill="#bf6b3c"/>
  <!-- Inner ink panel -->
  <path d="M32 10 48 16 V30 C48 41 41.5 49 32 54 C22.5 49 16 41 16 30 V16 Z" fill="#14181f"/>
  <!-- Document sheet -->
  <rect x="24" y="20" width="16" height="20" rx="2.5" fill="#faf8f4"/>
  <!-- Document text lines -->
  <line x1="27.5" y1="25" x2="36.5" y2="25" stroke="#bf6b3c" stroke-width="2" stroke-linecap="round"/>
  <line x1="27.5" y1="29" x2="36.5" y2="29" stroke="#cbd2da" stroke-width="2" stroke-linecap="round"/>
  <!-- Checkmark badge -->
  <circle cx="40" cy="40" r="9" fill="#13525a"/>
  <path d="M36 40 39 43 44.5 36.5" fill="none" stroke="#faf8f4" stroke-width="3" stroke-linecap="round" stroke-linejoin="round"/>
</svg>
